<?xml version="1.0" encoding="utf-8"?>
<!-- Generator: Adobe Illustrator 25.4.1, SVG Export Plug-In . SVG Version: 6.00 Build 0)  -->
<svg version="1.1" id="Layer_1" xmlns="http://www.w3.org/2000/svg" xmlns:xlink="http://www.w3.org/1999/xlink" x="0px" y="0px"
	 viewBox="0 0 890.3 431.7" style="enable-background:new 0 0 890.3 431.7;" xml:space="preserve">
<style type="text/css">
	.st0{fill:#E6E6E6;}
	.st1{fill:#FFFFFF;}
	.st2{fill:#6615BF;}
	.st3{fill:#3F3D56;}
	.st4{fill:#FFB8B8;}
	.st5{fill:#2F2E41;}
	.st6{fill:#575A89;}
	.st7{fill:#D0CDE1;}
	.st8{fill:none;stroke:#6615BF;}
</style>
<g>
	<rect x="186.3" y="1.7" class="st0" width="703.6" height="387.5"/>
	<rect x="248.5" y="53.7" class="st1" width="254" height="224.5"/>
	<rect x="597.5" y="58.1" class="st1" width="254" height="272.6"/>
	<ellipse class="st0" cx="393.2" cy="412" rx="45.5" ry="5.6"/>
	<ellipse class="st0" cx="107.7" cy="406.4" rx="104.4" ry="4.3"/>
	<rect x="186" y="1.4" class="st2" width="703.6" height="25.7"/>
	<ellipse class="st0" cx="208.2" cy="14.5" rx="5.5" ry="4.8"/>
	<ellipse class="st0" cx="229.2" cy="14.5" rx="5.5" ry="4.8"/>
	<ellipse class="st0" cx="250.2" cy="14.5" rx="5.5" ry="4.8"/>
	<path class="st3" d="M795.5,131.2H794V95c0-11.6-10.9-21-24.4-21h-89.3c-13.5,0-24.4,9.4-24.4,21v198.9c0,11.6,10.9,21,24.4,21
		h89.3c13.5,0,24.4-9.4,24.4-21V157h1.5V131.2z"/>
	<path class="st1" d="M769.5,79.4h-11.7c2.3,4.9-1.9,10.3-8,10.3h-51.2c-6.1,0-10.3-5.4-8-10.3h-10.9c-10.1,0-18.2,7-18.2,15.7
		v198.6c0,8.7,8.2,15.7,18.2,15.7h89.7c10.1,0,18.2-7,18.2-15.7V95.1C787.8,86.5,779.6,79.4,769.5,79.4z"/>
	<rect x="287.4" y="195.5" class="st0" width="176.5" height="6.9"/>
	<rect x="287.4" y="217.9" class="st2" width="176.5" height="6.9"/>
	<rect x="287.4" y="240.3" class="st0" width="176.5" height="6.9"/>
	<rect x="674.1" y="210.6" class="st0" width="103.1" height="6.9"/>
	<rect x="674.1" y="232.1" class="st0" width="103.1" height="6.9"/>
	<rect x="674.1" y="253.6" class="st0" width="103.1" height="6.9"/>
	<rect x="770.8" y="346.4" class="st3" width="17.2" height="14.8"/>
	<rect x="743.1" y="346.4" class="st2" width="17.2" height="14.8"/>
	<rect x="715.5" y="346.4" class="st3" width="17.2" height="14.8"/>
	<rect x="687.8" y="346.4" class="st3" width="17.2" height="14.8"/>
	<rect x="660.1" y="346.4" class="st3" width="17.2" height="14.8"/>
	<path class="st4" d="M352.9,238.4l-0.7,1.3l-2.2-9.6c0,0-3-10.2,3-10.2c5.9,0,4.4,10.2,4.4,10.2v7L352.9,238.4z"/>
	<path class="st4" d="M450.2,237.1l0.7,1.3l2.2-9.6c0,0,3-10.2-3-10.2c-5.9,0-4.4,10.2-4.4,10.2v7L450.2,237.1z"/>
	<polygon class="st5" points="385.5,310.1 376.6,357.2 381.1,403.1 391.5,399.3 390,364.9 400.3,337.5 402.6,370 398.1,403.8 
		411.5,405 421.1,335.6 420.4,312 	"/>
	<path class="st5" d="M385.5,397.4l-5.2,7v15.7c0,0.9,0.8,1.7,1.9,1.9c2.5,0.4,7,0.6,8.5-1.6c2.2-3.2,0.7-10.2,0.7-10.2
		s3-5.1,1.5-8.9s-3-4.5-3-4.5L385.5,397.4z"/>
	<path class="st5" d="M407.8,403.8l1.5,1.9c0,0,2.2,1.9,0.7,3.2c-1.1,1-2.1,2.1-3,3.2c0,0-8.2,1.9-8.2-0.6v-8.3L407.8,403.8z"/>
	<ellipse class="st4" cx="405.1" cy="249.7" rx="9.8" ry="8.4"/>
	<polygon class="st4" points="398.5,252.4 397.8,264.5 411.1,265.1 410.4,253 	"/>
	<path class="st6" d="M412.9,265.4l-2.1-4.4c0,0-9.8-3.2-12.7,0l-1.5,3.8l-11.9-2.5l-6.7,12.7l5.9,36.3c0,0,15.6,17.2,36.3,0.6
		l5.9-34.4l-4.4-13.4L412.9,265.4z"/>
	<polygon class="st6" points="420.4,266.7 421.8,264.2 436.7,256.5 445.7,233.5 452.7,236.1 444.8,263.5 423.3,280.7 	"/>
	<polygon class="st6" points="386.3,263.5 384.8,262.3 369.2,254 358.1,234.8 349.2,237.4 358.8,261 382.6,277.6 	"/>
	<path class="st5" d="M412.4,236.8l1.6-0.7l-2.4-0.7v-0.7c0,0-12-4.1-13.7,2.8c-4.3,4.9-4.3,11.7,0,16.6v2.1l12.9,1.4l1.6-4.1
		C412.4,253.4,420.4,240.9,412.4,236.8z"/>
	<path class="st4" d="M118.4,310.8l-2.9,1.2c0,0-11.4,4.5-8.1,7c3.3,2.5,12.4-2.5,12.4-2.5l1.9-2L118.4,310.8z"/>
	<polygon class="st5" points="201.9,310.2 193.1,361.2 179.8,396.8 172.7,393.9 179.3,345.2 160.3,331.3 161.7,310.8 	"/>
	<path class="st5" d="M171.7,395.1c0,0,8.1-3.7,8.6,1.6l-1,5.3c0,0,2.9,9.4-6.7,7.4c-9.5-2-2.9-8.2-2.9-8.2L171.7,395.1z"/>
	<path class="st5" d="M166.5,326.8l-6.2,4.5c0,0,0,27.8,4.3,31.9c4.3,4.1,31.4,25,32.4,25.8c1,0.8,5.2-8.2,5.2-8.2L176.5,355l1.9-16
		L166.5,326.8z"/>
	<path class="st5" d="M199.3,379.6c0,0,7.6-1.2,7.6,3.3c0.1,3.6,0.4,7.1,1,10.6c0,0,1.9,14.3-4.3,12.3c-6.2-2-8.6-16.4-8.6-16.4
		c0.6-1.2,1.6-2.2,2.9-2.9C199.8,385.7,199.3,379.6,199.3,379.6z"/>
	<polygon class="st4" points="175.5,249.4 176.9,264.6 173.1,270.3 162.7,261.7 161.7,250.2 	"/>
	<ellipse class="st4" cx="166.9" cy="244.5" rx="11.4" ry="9.8"/>
	<polygon class="st7" points="171.7,264.2 176.5,252.3 185,260.5 200.7,312.4 188.8,318.6 183.6,312 182.6,320.6 159.3,316.5 
		157.4,261.7 162.2,255.9 	"/>
	<polygon class="st5" points="165,322.3 162.2,256 156,260.1 144.6,266.6 152.2,289.9 154.6,314.5 	"/>
	<polygon class="st5" points="147.9,267 144.6,266.6 135.1,290.8 116,311.2 123.2,317.8 145.1,299.4 153.1,284.2 	"/>
	<path class="st4" d="M199.9,311.2l-0.6,2.7c0,0-3,10.5,1.3,9.8c4.3-0.7,5.4-9.9,5.4-9.9l-0.7-2.6L199.9,311.2z"/>
	<polygon class="st5" points="175.7,251.6 199.3,259.6 196.4,284.2 202.2,311.2 196.4,316.5 175.3,255.1 	"/>
	<path class="st5" d="M167.5,228l3.4-1.4v1.4l2.2-1v2.4c0,0,8.4,5.3,6.7,11.5c-1.7,6.2-1.7,6.7-1.7,6.7s-2.1-11.9-10.5-10
		c-8.4,1.9-9.1,2.3-11.3,7.6l-0.6,2.3C155.8,247.6,146.3,229,167.5,228z"/>
	<polygon class="st5" points="196,259.6 199.8,259.6 206,288.3 206,313.3 198.4,312 192.2,274.4 	"/>
	<rect x="6.8" y="320.2" class="st2" width="140.3" height="83.9"/>
	<path class="st1" d="M77,336.6c-22.9,0-37.2,21.3-25.7,38.4c11.4,17,40,17,51.5,0c2.6-3.9,4-8.3,4-12.8
		C106.7,348.1,93.4,336.6,77,336.6z M77,344.3c6.9,0,11.2,6.4,7.7,11.5c-3.4,5.1-12,5.1-15.4,0c-0.8-1.2-1.2-2.5-1.2-3.8
		C68.1,347.7,72.1,344.3,77,344.3z M77,381.2c-7.2,0-13.8-3.1-17.8-8.2c0.1-5.1,11.9-7.9,17.8-7.9c5.9,0,17.7,2.8,17.8,7.9
		C90.8,378.1,84.2,381.2,77,381.2z"/>
	<polygon class="st1" points="287,80.3 288,78.8 464,165.7 463,167.2 	"/>
	<polygon class="st1" points="287,165.7 463,78.8 464,80.3 288,167.1 	"/>
	<polygon class="st1" points="695.8,121.4 697.2,120.2 754.2,169.2 752.8,170.5 	"/>
	<polygon class="st1" points="695.8,169.2 752.8,120.2 754.2,121.4 697.2,170.5 	"/>
	<path class="st2" d="M745.4,150.5c-1.7-0.5-3.5-1-5.5-1.4c0.6-1.9,1.2-3.8,1.5-5.5c1.3-6.3,0.7-10.5-2-12c-0.7-0.4-1.4-0.6-2.3-0.6
		c-1.2,0-2.6,0.4-4.2,1.3c-0.6-0.4-1.3-0.7-2-0.7c-1.8,0-3.2,1.5-3.2,3.3c0,0.4,0.1,0.8,0.2,1.1c-1.2,1.1-2.5,2.5-3.8,3.9
		c-4.8-5.6-9.6-8.9-13-8.9c-0.8,0-1.6,0.2-2.3,0.6c-2.6,1.5-3.3,5.7-2,12c0.4,1.7,0.9,3.6,1.5,5.5c-2,0.4-3.8,0.9-5.5,1.4
		c-6.1,2-9.3,4.7-9.3,7.7c0,2.1,1.5,4,4.4,5.7c-0.1,0.3-0.1,0.5-0.1,0.8c0,1.8,1.5,3.3,3.2,3.3c1.2,0,2.2-0.7,2.8-1.7
		c1.4,0.4,2.9,0.8,4.4,1.1c-0.6,1.9-1.2,3.8-1.5,5.5c-1.3,6.3-0.7,10.5,2,12c0.7,0.4,1.4,0.6,2.3,0.6c3.4,0,8.1-3.4,13-8.9
		c4.8,5.6,9.6,8.9,13,8.9c0.8,0,1.6-0.2,2.3-0.6c2-1.2,2.9-3.9,2.6-7.9c1.2-0.5,1.9-1.7,1.9-3c0-1.7-1.3-3.1-3-3.2
		c-0.3-1.1-0.7-2.3-1-3.4c2-0.4,3.8-0.9,5.5-1.4c6.1-2,9.3-4.7,9.3-7.7C754.8,155.1,751.5,152.5,745.4,150.5z M729.3,137.5
		c0.5,0.4,1.1,0.6,1.8,0.6c1.8,0,3.2-1.5,3.2-3.3c0-0.3-0.1-0.6-0.2-0.9c1.2-0.6,2.2-0.9,3.1-0.9c0.5,0,0.9,0.1,1.3,0.3
		c1.8,1,2.1,4.7,1,9.9c-0.4,1.7-0.9,3.6-1.6,5.5c-2.6-0.4-5.2-0.7-7.8-0.9c-1.4-2.2-3-4.3-4.7-6.4
		C726.7,140.1,728,138.8,729.3,137.5z M731.7,162.5c-0.8,1.4-1.7,2.8-2.5,4.2c-3.2,0.2-6.5,0.2-9.7,0c-0.9-1.4-1.7-2.8-2.5-4.2
		c-0.8-1.4-1.6-2.9-2.3-4.3c1.5-2.9,3.1-5.7,4.8-8.5c3.2-0.2,6.5-0.2,9.7,0c1.8,2.7,3.4,5.6,4.8,8.5
		C733.3,159.6,732.5,161.1,731.7,162.5z M735.1,160.4c0.8,1.8,1.6,3.6,2.3,5.4c-1.9,0.3-3.9,0.6-5.8,0.7c0.6-1,1.2-2,1.8-3
		C734,162.5,734.5,161.4,735.1,160.4z M727.8,168.7c-1.1,1.6-2.3,3.2-3.5,4.7c-1.2-1.5-2.4-3.1-3.5-4.7c1.2,0,2.3,0.1,3.5,0.1
		C725.5,168.8,726.7,168.8,727.8,168.7z M717,166.5c-1.9-0.2-3.9-0.4-5.8-0.7c0.6-1.7,1.4-3.5,2.3-5.4c0.5,1,1.1,2.1,1.7,3.1
		C715.8,164.5,716.4,165.5,717,166.5L717,166.5z M713.5,156c-0.8-1.8-1.6-3.6-2.3-5.4c1.9-0.3,3.9-0.6,5.8-0.7c-0.6,1-1.2,2-1.8,3
		C714.6,153.9,714.1,155,713.5,156z M720.8,147.7c1.1-1.6,2.3-3.2,3.5-4.7c1.2,1.5,2.4,3.1,3.5,4.7c-1.2,0-2.3-0.1-3.5-0.1
		C723.1,147.6,721.9,147.6,720.8,147.7z M733.4,152.9c-0.6-1-1.2-2-1.8-3c1.9,0.2,3.9,0.4,5.8,0.7c-0.7,1.8-1.5,3.6-2.3,5.4
		C734.5,155,734,153.9,733.4,152.9z M709,143.2c-1.1-5.2-0.7-8.9,1-9.9c0.4-0.2,0.8-0.3,1.3-0.3c2.6,0,6.9,2.9,11.7,8.5
		c-1.6,1.9-3.1,4.1-4.7,6.4c-2.7,0.2-5.3,0.5-7.8,0.9C709.9,146.8,709.4,144.9,709,143.2z M704.6,164.3c-0.2-1.6-1.5-2.9-3.2-2.9
		c-0.8,0-1.5,0.3-2.1,0.8c-2.3-1.3-3.5-2.6-3.5-4c0-2.7,5.1-5.6,13.5-7.3c0.9,2.5,2,4.9,3.1,7.3c-1.2,2.4-2.2,4.8-3.1,7.3
		C707.7,165.1,706.2,164.8,704.6,164.3z M711.3,183.4c-0.5,0-0.9-0.1-1.3-0.3c-2.3-1.4-2.2-7.3,0.5-15.4c2.5,0.4,5.1,0.7,7.8,0.9
		c1.4,2.2,3,4.3,4.7,6.4C718.2,180.5,713.9,183.4,711.3,183.4z M739.1,171.2c-1,0.6-1.6,1.6-1.6,2.8c0,1.6,1.1,2.9,2.6,3.2
		c0.2,3.1-0.3,5.2-1.6,5.9c-0.4,0.2-0.8,0.3-1.3,0.3c-2.6,0-6.9-2.9-11.7-8.5c1.7-2,3.2-4.2,4.7-6.4c2.6-0.2,5.2-0.5,7.8-0.9
		C738.4,168.9,738.8,170.1,739.1,171.2L739.1,171.2z M739.3,165.5c-0.9-2.5-2-4.9-3.1-7.3c1.2-2.4,2.2-4.8,3.1-7.3
		c8.4,1.7,13.5,4.6,13.5,7.3C752.8,160.9,747.7,163.8,739.3,165.5L739.3,165.5z"/>
	<path class="st8" d="M745.4,150.5c-1.7-0.5-3.5-1-5.5-1.4c0.6-1.9,1.2-3.8,1.5-5.5c1.3-6.3,0.7-10.5-2-12c-0.7-0.4-1.4-0.6-2.3-0.6
		c-1.2,0-2.6,0.4-4.2,1.3c-0.6-0.4-1.3-0.7-2-0.7c-1.8,0-3.2,1.5-3.2,3.3c0,0.4,0.1,0.8,0.2,1.1c-1.2,1.1-2.5,2.5-3.8,3.9
		c-4.8-5.6-9.6-8.9-13-8.9c-0.8,0-1.6,0.2-2.3,0.6c-2.6,1.5-3.3,5.7-2,12c0.4,1.7,0.9,3.6,1.5,5.5c-2,0.4-3.8,0.9-5.5,1.4
		c-6.1,2-9.3,4.7-9.3,7.7c0,2.1,1.5,4,4.4,5.7c-0.1,0.3-0.1,0.5-0.1,0.8c0,1.8,1.5,3.3,3.2,3.3c1.2,0,2.2-0.7,2.8-1.7
		c1.4,0.4,2.9,0.8,4.4,1.1c-0.6,1.9-1.2,3.8-1.5,5.5c-1.3,6.3-0.7,10.5,2,12c0.7,0.4,1.4,0.6,2.3,0.6c3.4,0,8.1-3.4,13-8.9
		c4.8,5.6,9.6,8.9,13,8.9c0.8,0,1.6-0.2,2.3-0.6c2-1.2,2.9-3.9,2.6-7.9c1.2-0.5,1.9-1.7,1.9-3c0-1.7-1.3-3.1-3-3.2
		c-0.3-1.1-0.7-2.3-1-3.4c2-0.4,3.8-0.9,5.5-1.4c6.1-2,9.3-4.7,9.3-7.7C754.8,155.1,751.5,152.5,745.4,150.5z M729.3,137.5
		c0.5,0.4,1.1,0.6,1.8,0.6c1.8,0,3.2-1.5,3.2-3.3c0-0.3-0.1-0.6-0.2-0.9c1.2-0.6,2.2-0.9,3.1-0.9c0.5,0,0.9,0.1,1.3,0.3
		c1.8,1,2.1,4.7,1,9.9c-0.4,1.7-0.9,3.6-1.6,5.5c-2.6-0.4-5.2-0.7-7.8-0.9c-1.4-2.2-3-4.3-4.7-6.4
		C726.7,140.1,728,138.8,729.3,137.5z M731.7,162.5c-0.8,1.4-1.7,2.8-2.5,4.2c-3.2,0.2-6.5,0.2-9.7,0c-0.9-1.4-1.7-2.8-2.5-4.2
		c-0.8-1.4-1.6-2.9-2.3-4.3c1.5-2.9,3.1-5.7,4.8-8.5c3.2-0.2,6.5-0.2,9.7,0c1.8,2.7,3.4,5.6,4.8,8.5
		C733.3,159.6,732.5,161.1,731.7,162.5z M735.1,160.4c0.8,1.8,1.6,3.6,2.3,5.4c-1.9,0.3-3.9,0.6-5.8,0.7c0.6-1,1.2-2,1.8-3
		C734,162.5,734.5,161.4,735.1,160.4z M727.8,168.7c-1.1,1.6-2.3,3.2-3.5,4.7c-1.2-1.5-2.4-3.1-3.5-4.7c1.2,0,2.3,0.1,3.5,0.1
		C725.5,168.8,726.7,168.8,727.8,168.7z M717,166.5c-1.9-0.2-3.9-0.4-5.8-0.7c0.6-1.7,1.4-3.5,2.3-5.4c0.5,1,1.1,2.1,1.7,3.1
		C715.8,164.5,716.4,165.5,717,166.5L717,166.5z M713.5,156c-0.8-1.8-1.6-3.6-2.3-5.4c1.9-0.3,3.9-0.6,5.8-0.7c-0.6,1-1.2,2-1.8,3
		C714.6,153.9,714.1,155,713.5,156z M720.8,147.7c1.1-1.6,2.3-3.2,3.5-4.7c1.2,1.5,2.4,3.1,3.5,4.7c-1.2,0-2.3-0.1-3.5-0.1
		C723.1,147.6,721.9,147.6,720.8,147.7z M733.4,152.9c-0.6-1-1.2-2-1.8-3c1.9,0.2,3.9,0.4,5.8,0.7c-0.7,1.8-1.5,3.6-2.3,5.4
		C734.5,155,734,153.9,733.4,152.9z M709,143.2c-1.1-5.2-0.7-8.9,1-9.9c0.4-0.2,0.8-0.3,1.3-0.3c2.6,0,6.9,2.9,11.7,8.5
		c-1.6,1.9-3.1,4.1-4.7,6.4c-2.7,0.2-5.3,0.5-7.8,0.9C709.9,146.8,709.4,144.9,709,143.2z M704.6,164.3c-0.2-1.6-1.5-2.9-3.2-2.9
		c-0.8,0-1.5,0.3-2.1,0.8c-2.3-1.3-3.5-2.6-3.5-4c0-2.7,5.1-5.6,13.5-7.3c0.9,2.5,2,4.9,3.1,7.3c-1.2,2.4-2.2,4.8-3.1,7.3
		C707.7,165.1,706.2,164.8,704.6,164.3z M711.3,183.4c-0.5,0-0.9-0.1-1.3-0.3c-2.3-1.4-2.2-7.3,0.5-15.4c2.5,0.4,5.1,0.7,7.8,0.9
		c1.4,2.2,3,4.3,4.7,6.4C718.2,180.5,713.9,183.4,711.3,183.4z M739.1,171.2c-1,0.6-1.6,1.6-1.6,2.8c0,1.6,1.1,2.9,2.6,3.2
		c0.2,3.1-0.3,5.2-1.6,5.9c-0.4,0.2-0.8,0.3-1.3,0.3c-2.6,0-6.9-2.9-11.7-8.5c1.7-2,3.2-4.2,4.7-6.4c2.6-0.2,5.2-0.5,7.8-0.9
		C738.4,168.9,738.8,170.1,739.1,171.2L739.1,171.2z M739.3,165.5c-0.9-2.5-2-4.9-3.1-7.3c1.2-2.4,2.2-4.8,3.1-7.3
		c8.4,1.7,13.5,4.6,13.5,7.3C752.8,160.9,747.7,163.8,739.3,165.5L739.3,165.5z"/>
	<path class="st2" d="M393.7,121.6c-1.3-0.4-2.7-0.8-4.2-1.1c0.5-1.5,0.9-2.9,1.2-4.2c1-4.8,0.5-8-1.5-9.1c-0.5-0.3-1.1-0.4-1.7-0.4
		c-0.9,0-2,0.3-3.2,1c-0.4-0.3-1-0.5-1.5-0.5c-1.4,0-2.5,1.1-2.5,2.5c0,0.3,0.1,0.6,0.2,0.9c-0.9,0.9-1.9,1.9-2.9,3
		c-3.7-4.2-7.3-6.8-9.9-6.8c-0.6,0-1.2,0.1-1.7,0.4c-2,1.2-2.5,4.3-1.5,9.1c0.3,1.3,0.7,2.7,1.2,4.2c-1.5,0.3-2.9,0.7-4.2,1.1
		c-4.6,1.5-7.1,3.5-7.1,5.9c0,1.6,1.2,3.1,3.4,4.3c0,0.2-0.1,0.4-0.1,0.6c0,1.4,1.1,2.5,2.5,2.5c0.9,0,1.7-0.5,2.1-1.3
		c1,0.3,2.2,0.6,3.4,0.8c-0.5,1.5-0.9,2.9-1.2,4.2c-1,4.8-0.5,8,1.5,9.1c0.5,0.3,1.1,0.4,1.7,0.4c2.6,0,6.2-2.6,9.9-6.8
		c3.7,4.2,7.3,6.8,9.9,6.8c0.6,0,1.2-0.1,1.7-0.4c1.5-0.9,2.2-2.9,2-6c0.9-0.4,1.5-1.3,1.5-2.3c0-1.3-1-2.4-2.3-2.5
		c-0.2-0.9-0.5-1.7-0.8-2.6c1.5-0.3,2.9-0.7,4.2-1.1c4.6-1.5,7.1-3.5,7.1-5.9C400.7,125.1,398.3,123.1,393.7,121.6z M381.4,111.8
		c0.4,0.3,0.9,0.4,1.4,0.4c1.4,0,2.5-1.1,2.5-2.5c0-0.2,0-0.5-0.1-0.7c0.9-0.5,1.7-0.7,2.3-0.7c0.4,0,0.7,0.1,1,0.2
		c1.3,0.8,1.6,3.6,0.8,7.5c-0.3,1.3-0.7,2.7-1.2,4.2c-2-0.3-3.9-0.6-5.9-0.7c-1.1-1.7-2.3-3.3-3.5-4.8
		C379.5,113.7,380.4,112.7,381.4,111.8z M383.2,130.8c-0.6,1.1-1.3,2.1-1.9,3.2c-2.5,0.1-4.9,0.1-7.4,0c-0.7-1-1.3-2.1-1.9-3.2
		c-0.6-1.1-1.2-2.2-1.8-3.3c1.1-2.2,2.3-4.4,3.7-6.4c2.5-0.1,4.9-0.1,7.4,0c1.3,2.1,2.6,4.2,3.7,6.4
		C384.4,128.6,383.8,129.7,383.2,130.8z M385.8,129.1c0.6,1.4,1.2,2.7,1.7,4.1c-1.5,0.2-2.9,0.4-4.4,0.5c0.5-0.7,0.9-1.5,1.4-2.3
		C384.9,130.7,385.4,129.9,385.8,129.1z M380.3,135.5c-0.8,1.2-1.7,2.4-2.7,3.6c-0.9-1.2-1.8-2.4-2.7-3.6c0.9,0,1.8,0.1,2.7,0.1
		C378.5,135.5,379.4,135.5,380.3,135.5z M372.1,133.8c-1.5-0.1-2.9-0.3-4.4-0.5c0.5-1.3,1.1-2.7,1.7-4.1c0.4,0.8,0.8,1.6,1.3,2.4
		C371.1,132.3,371.6,133.1,372.1,133.8L372.1,133.8z M369.4,125.8c-0.6-1.3-1.2-2.7-1.7-4.1c1.5-0.2,2.9-0.4,4.4-0.5
		c-0.5,0.7-0.9,1.5-1.4,2.3C370.2,124.2,369.8,125,369.4,125.8z M374.9,119.5c0.8-1.2,1.7-2.4,2.7-3.6c0.9,1.2,1.8,2.4,2.7,3.6
		c-0.9,0-1.8-0.1-2.7-0.1C376.7,119.4,375.8,119.4,374.9,119.5z M384.5,123.5c-0.4-0.8-0.9-1.5-1.4-2.3c1.5,0.1,2.9,0.3,4.4,0.5
		c-0.5,1.4-1.1,2.8-1.7,4.1C385.4,125,384.9,124.2,384.5,123.5z M366,116c-0.8-3.9-0.5-6.7,0.8-7.5c0.3-0.2,0.6-0.2,1-0.2
		c2,0,5.2,2.2,8.9,6.4c-1.2,1.5-2.4,3.1-3.5,4.9c-2.1,0.1-4.1,0.4-5.9,0.7C366.6,118.8,366.2,117.4,366,116z M362.6,132.1
		c-0.1-1.3-1.2-2.2-2.4-2.2c-0.6,0-1.2,0.2-1.6,0.6c-1.7-1-2.7-2-2.7-3c0-2.1,3.9-4.3,10.3-5.5c0.7,1.9,1.5,3.7,2.4,5.5
		c-0.9,1.8-1.7,3.6-2.4,5.5C365,132.8,363.8,132.5,362.6,132.1z M367.7,146.7c-0.4,0-0.7-0.1-1-0.2c-1.8-1-1.7-5.6,0.4-11.7
		c1.9,0.3,3.9,0.5,5.9,0.7c1.1,1.7,2.3,3.3,3.5,4.9C373,144.5,369.7,146.7,367.7,146.7z M388.8,137.4c-0.7,0.5-1.2,1.3-1.2,2.1
		c0,1.2,0.9,2.2,2,2.4c0.2,2.3-0.3,3.9-1.2,4.5c-0.3,0.2-0.6,0.2-1,0.2c-2,0-5.2-2.2-8.9-6.4c1.3-1.6,2.4-3.2,3.6-4.9
		c2-0.1,4-0.4,5.9-0.7C388.3,135.6,388.6,136.5,388.8,137.4L388.8,137.4z M389,133c-0.7-1.9-1.5-3.7-2.4-5.5
		c0.9-1.8,1.7-3.6,2.4-5.5c6.4,1.3,10.3,3.5,10.3,5.5C399.3,129.5,395.4,131.7,389,133L389,133z"/>
	<path class="st2" d="M381,127.5c0,0.9-0.4,1.8-1,2.5c-0.5,0.5-1.1,0.8-1.8,1c-0.7,0.1-1.4,0.1-2-0.2c-0.4-0.2-0.8-0.4-1.1-0.8
		c-0.3-0.3-0.6-0.7-0.7-1.1c-0.3-0.6-0.3-1.3-0.2-2c0.1-0.7,0.5-1.3,0.9-1.8c0.5-0.5,1.1-0.8,1.8-1c0.7-0.1,1.4-0.1,2,0.2
		c0.4,0.2,0.8,0.4,1.1,0.8c0.3,0.3,0.6,0.7,0.7,1.1C381,126.6,381,127,381,127.5z"/>
</g>
</svg>
